# xmcd
#
# Track frame offsets: 
#        150
#        15301
#        33451
#        45701
#        62034
#        82371
#        95145
#        119433
#        131486
#        147424
#        161688
#        175960
#        192167
#        204103
#
# Disc length: 2901 seconds
#
# Revision: 0
# Processed by: cddbd v1.5.2PL0 Copyright (c) Steve Scherf et al.
# Submitted via: ExactAudioCopy v0.95b4
#
DISCID=c60b530e
DTITLE=John Williamson - Warragul
DYEAR=1900
DGENRE=Country
TTITLE0=Dingo
TTITLE1=Why They Call Him Sundown
TTITLE2=Station Cook
TTITLE3=Drover's Boy
TTITLE4=Ancient Mountains
TTITLE5=Boogie With M'Baby
TTITLE6=Special Girl
TTITLE7=40 Years Ago
TTITLE8=Amazing Day
TTITLE9=Longreach Is Praying
TTITLE10=Bill The Cat
TTITLE11=Big Bad Bushranger
TTITLE12=Rip Rip Woodchip
TTITLE13=Shelter
EXTD=
EXTT0=
EXTT1=
EXTT2=
EXTT3=
EXTT4=
EXTT5=
EXTT6=
EXTT7=
EXTT8=
EXTT9=
EXTT10=
EXTT11=
EXTT12=
EXTT13=
PLAYORDER=
